# xmcd
#
# Track frame offsets:
# 150
# 23590
# 42790
# 64805
# 92380
# 107225
# 127562
# 147780
# 165912
# 180682
# 199482
# 219729
# 240472
# 262779
# 290159
# 313336
# 331791
#
# Disc length: 4656 seconds
#
# Revision: 0
# Processed by: cddbd v1.5.1PL2 Copyright (c) Steve Scherf et al.
# Submitted via: plextools 2.25
#
DISCID=e9122e11
DTITLE=Various Artist - Disco Super Best Vol.2
DYEAR=1900
DGENRE=Disco
TTITLE0=Various Artist - カフェ
TTITLE1=Various Artist - 私を救ったDJ
TTITLE2=Various Artist - ビリー・ジーン
TTITLE3=Various Artist - サイド・ウォーク・トーク
TTITLE4=Various Artist - サイコ・チキン
TTITLE5=Various Artist - ラウズ・ダンス
TTITLE6=Various Artist - 愛はとまらない
TTITLE7=Various Artist - オー・シーラ
TTITLE8=Various Artist - テレフォン・オペレーター
TTITLE9=Various Artist - ワン・フォー・ミー
TTITLE10=Various Artist - ミス・ミー・ブラインド
TTITLE11=Various Artist - ガール・ライク・ユー
TTITLE12=Various Artist - 失われた愛の世界
TTITLE13=Various Artist - ガールズ・ジャスト・ワナ・ハブ・ファン
TTITLE14=Various Artist - ガット・トゥ・ビー・リアル
TTITLE15=Various Artist - ギブ・イット・アップ
TTITLE16=Various Artist - コール・ミー
EXTD=
EXTT0=
EXTT1=
EXTT2=
EXTT3=
EXTT4=
EXTT5=
EXTT6=
EXTT7=
EXTT8=
EXTT9=
EXTT10=
EXTT11=
EXTT12=
EXTT13=
EXTT14=
EXTT15=
EXTT16=
PLAYORDER=
